<?xml version="1.0" encoding="UTF-8"?>
<svg xmlns="http://www.w3.org/2000/svg" xmlns:xlink="http://www.w3.org/1999/xlink" width="20px" height="20px" viewBox="0 0 20 20" version="1.1">
<g id="surface1">
<path style=" stroke:none;fill-rule:evenodd;fill:rgb(1.176471%,69.803923%,88.627452%);fill-opacity:1;" d="M -0.0429688 -0.0429688 C 6.621094 -0.0429688 13.289062 -0.0429688 19.957031 -0.0429688 C 19.957031 6.621094 19.957031 13.289062 19.957031 19.957031 C 13.289062 19.957031 6.621094 19.957031 -0.0429688 19.957031 C -0.0429688 13.289062 -0.0429688 6.621094 -0.0429688 -0.0429688 Z M -0.0429688 -0.0429688 "/>
<path style=" stroke:none;fill-rule:evenodd;fill:rgb(98.431373%,99.215686%,99.215686%);fill-opacity:1;" d="M 15.601562 14.355469 C 11.792969 14.445312 7.96875 14.472656 4.132812 14.445312 C 5.996094 10.597656 7.90625 6.777344 9.867188 2.976562 C 11.800781 6.753906 13.710938 10.546875 15.601562 14.355469 Z M 15.601562 14.355469 "/>
<path style=" stroke:none;fill-rule:evenodd;fill:rgb(5.882353%,69.803923%,88.627452%);fill-opacity:1;" d="M 14.179688 13.464844 C 11.304688 13.585938 8.429688 13.585938 5.554688 13.464844 C 6.964844 10.585938 8.402344 7.710938 9.867188 4.84375 C 11.351562 7.695312 12.789062 10.570312 14.179688 13.464844 Z M 14.179688 13.464844 "/>
<path style=" stroke:none;fill-rule:evenodd;fill:rgb(98.039216%,99.215686%,99.215686%);fill-opacity:1;" d="M 9.820312 6.890625 C 10.304688 7.648438 10.722656 8.449219 11.066406 9.289062 C 10.265625 9.320312 9.464844 9.289062 8.667969 9.199219 C 9.085938 8.441406 9.472656 7.671875 9.820312 6.890625 Z M 9.820312 6.890625 "/>
<path style=" stroke:none;fill-rule:evenodd;fill:rgb(98.823529%,99.607843%,99.607843%);fill-opacity:1;" d="M 12.753906 12.578125 C 10.84375 12.667969 8.917969 12.695312 6.976562 12.667969 C 7.34375 11.859375 7.730469 11.0625 8.132812 10.265625 C 9.289062 10.148438 10.445312 10.148438 11.601562 10.265625 C 11.988281 11.039062 12.371094 11.808594 12.753906 12.578125 Z M 12.753906 12.578125 "/>
<path style=" stroke:none;fill-rule:evenodd;fill:rgb(40.392157%,78.039217%,90.588236%);fill-opacity:1;" d="M 12.753906 12.578125 C 12.804688 12.582031 12.832031 12.613281 12.84375 12.667969 C 10.875 12.785156 8.917969 12.785156 6.976562 12.667969 C 8.917969 12.695312 10.84375 12.667969 12.753906 12.578125 Z M 12.753906 12.578125 "/>
<path style=" stroke:none;fill-rule:evenodd;fill:rgb(49.411765%,81.960785%,94.117647%);fill-opacity:1;" d="M 5.554688 13.464844 C 8.429688 13.585938 11.304688 13.585938 14.179688 13.464844 C 14.226562 13.472656 14.253906 13.5 14.265625 13.554688 C 11.332031 13.675781 8.398438 13.675781 5.464844 13.554688 C 5.476562 13.5 5.507812 13.472656 5.554688 13.464844 Z M 5.554688 13.464844 "/>
<path style=" stroke:none;fill-rule:evenodd;fill:rgb(29.019609%,74.117649%,91.37255%);fill-opacity:1;" d="M 15.601562 14.355469 C 15.648438 14.359375 15.679688 14.390625 15.6875 14.445312 C 11.824219 14.5625 7.96875 14.5625 4.132812 14.445312 C 7.96875 14.472656 11.792969 14.445312 15.601562 14.355469 Z M 15.601562 14.355469 "/>
</g>
</svg>
